#define and_curseur_dague_width 32
#define and_curseur_dague_height 32
static unsigned char and_curseur_dague_bits[] = {
   0x01, 0x00, 0x00, 0x00, 0x02, 0x00, 0x00, 0x00, 0x0c, 0x00, 0x00, 0x00,
   0x14, 0x00, 0x00, 0x00, 0x28, 0x00, 0x00, 0x00, 0x50, 0x00, 0x00, 0x00,
   0xa0, 0x00, 0x00, 0x00, 0x40, 0x01, 0x00, 0x00, 0x80, 0x06, 0x00, 0x00,
   0x00, 0x09, 0x00, 0x00, 0x00, 0x11, 0x00, 0x00, 0x00, 0x22, 0x00, 0x00,
   0x00, 0x44, 0x00, 0x00, 0x00, 0x88, 0x00, 0x00, 0x00, 0x10, 0x01, 0x00,
   0x00, 0x20, 0x02, 0x10, 0x00, 0x40, 0x04, 0x18, 0x00, 0x80, 0x08, 0x14,
   0x00, 0x00, 0x11, 0x12, 0x00, 0x00, 0x22, 0x0a, 0x00, 0x00, 0x44, 0x0a,
   0x00, 0x00, 0x88, 0x09, 0x00, 0x00, 0x90, 0x04, 0x00, 0x00, 0x60, 0x04,
   0x00, 0x00, 0x20, 0x02, 0x00, 0x00, 0x1c, 0x07, 0x00, 0x00, 0xc2, 0x0e,
   0x00, 0x00, 0x39, 0x1c, 0x00, 0x80, 0x07, 0x38, 0x00, 0x00, 0x00, 0xf0,
   0x00, 0x00, 0x00, 0xe0, 0x00, 0x00, 0x00, 0xe0 };
